<?xml version="1.0" encoding="UTF-8" standalone="no"?><svg xmlns="http://www.w3.org/2000/svg" xmlns:xlink="http://www.w3.org/1999/xlink" contentScriptType="text/ecmascript" fill="#000000" width="236" zoomAndPan="magnify" contentStyleType="text/css" viewBox="132.0 132.0 236.0 236.0" height="236" preserveAspectRatio="xMidYMid meet" version="1"><g><g fill="#8d9677" id="change1_1"><path d="M137.5 137.5L132 132 132 137.5z"/><path d="M132 148.5L148.5 148.5 143 143 132 143z"/><path d="M132 159.5L159.5 159.5 154 154 132 154z"/><path d="M132 170.4L170.4 170.4 164.9 164.9 132 164.9z"/><path d="M132 181.4L181.4 181.4 175.9 175.9 132 175.9z"/><path d="M132 192.4L192.4 192.4 186.9 186.9 132 186.9z"/><path d="M132 203.4L203.4 203.4 197.9 197.9 132 197.9z"/><path d="M132 214.3L214.3 214.3 208.8 208.8 132 208.8z"/><path d="M132 225.3L225.3 225.3 219.8 219.8 132 219.8z"/><path d="M132 236.3L236.3 236.3 230.8 230.8 132 230.8z"/><path d="M132 247.3L247.3 247.3 241.8 241.8 132 241.8z"/><path d="M132 258.2L258.2 258.2 252.7 252.7 132 252.7z"/><path d="M132 269.2L269.2 269.2 263.7 263.7 132 263.7z"/><path d="M132 280.2L280.2 280.2 274.7 274.7 132 274.7z"/><path d="M132 291.2L291.2 291.2 285.7 285.7 132 285.7z"/><path d="M132 302.1L302.1 302.1 296.6 296.6 132 296.6z"/><path d="M132 313.1L313.1 313.1 307.6 307.6 132 307.6z"/><path d="M132 324.1L324.1 324.1 318.6 318.6 132 318.6z"/><path d="M132 335.1L335.1 335.1 329.6 329.6 132 329.6z"/><path d="M132 346L346 346 340.5 340.5 132 340.5z"/><path d="M132 357L357 357 351.5 351.5 132 351.5z"/><path d="M132 362.5L132 368 368 368 362.5 362.5z"/></g></g></svg>